# xmcd
#
# Track frame offsets:
#	150
#	3023
#	12737
#	26482
#	45665
#	62953
#	78338
#	98604
#	120476
#	136998
#	150056
#	157514
#	164569
#	174433
#	179190
#	195299
#	216238
#	230349
#	246824
#	265764
#	283955
#	293801
#	307791
#	323081
#
# Disc length: 4344 seconds
#
# Revision: 2
# Processed by: cddbd v1.5.2PL0 Copyright (c) Steve Scherf et al.
# Submitted via: audiograbber 1.83.01
#
DISCID=3510f618
DTITLE=Various Artist - Macca By Request Vol. 2
DYEAR=2004
DGENRE=Country
TTITLE0=Bob Haddock - What Australia Means To Me
TTITLE1=Drew Forsythe - Macca On A Sunday
TTITLE2=The Bushrangers (Kevin Bennett, Digger Revell and Ben Hall) - The Bushran
TTITLE2=ger
TTITLE3=Enda Kennedy - Easter Island
TTITLE4=Bob Katz - (Hero) Man In The Picture
TTITLE5=Toni McRae - Cassowaries
TTITLE6=Rolf Harris and Ian McNamara - Fry Me Kangaroo Brown
TTITLE7=Pigram Brothers - Johnny Walker Shoes
TTITLE8=Ian McNamara - Australia Is Me
TTITLE9=Us Not Them - I Don't Work For A Living
TTITLE10=Dermot Dorgan - Cockroach Rap
TTITLE11=Andra Muhoberac - Jam Drops
TTITLE12=Penny Davies and Roger Ilott - Ridin' On The Fruit Train
TTITLE13=Gilbert Bennion - Train Freight
TTITLE14=The Texettes - The Land That We Love
TTITLE15=Barleycorn - Mary Ellen Carter
TTITLE16=Bob Wilson and The Goodwills - Big Country Town
TTITLE17=Cathy Miller - Grand Old Duchess
TTITLE18=Doug Ashdown - If Wishes Were Horses
TTITLE19=John Hartford and Ian McNamara - Gumtree Canoe
TTITLE20=Bill Eckelschot - Dutchman's Lament
TTITLE21=Purple Dentists - Merino
TTITLE22=Janet Seidel - The Christmas Song
TTITLE23=Drew Forsythe - Macca's On The Radio
EXTD=
EXTT0=
EXTT1=
EXTT2=
EXTT3=
EXTT4=
EXTT5=
EXTT6=
EXTT7=
EXTT8=
EXTT9=
EXTT10=
EXTT11=
EXTT12=
EXTT13=
EXTT14=
EXTT15=
EXTT16=
EXTT17=
EXTT18=
EXTT19=
EXTT20=
EXTT21=
EXTT22=
EXTT23=
PLAYORDER=
